<!DOCTYPE svg PUBLIC "-//W3C//DTD SVG 1.1//EN" "http://www.w3.org/Graphics/SVG/1.1/DTD/svg11.dtd">
<!-- Uploaded to: SVG Repo, www.svgrepo.com, Transformed by: SVG Repo Mixer Tools -->
<svg fill="#ffffff" height="145px" width="145px" version="1.1" id="Layer_1" xmlns="http://www.w3.org/2000/svg" xmlns:xlink="http://www.w3.org/1999/xlink" viewBox="-107.52 -107.52 727.04 727.04" xml:space="preserve" stroke="#ffffff" stroke-width="24.064" transform="rotate(0)">

<g id="SVGRepo_bgCarrier" stroke-width="0"/>

<g id="SVGRepo_tracerCarrier" stroke-linecap="round" stroke-linejoin="round"/>

<g id="SVGRepo_iconCarrier"> <g> <g> <path d="M345.6,115.2c-7.066,0-12.8,5.734-12.8,12.8v256c0,7.066,5.734,12.8,12.8,12.8c7.066,0,12.8-5.734,12.8-12.8V128 C358.4,120.934,352.666,115.2,345.6,115.2z"/> </g> </g> <g> <g> <path d="M256,0C114.62,0,0,114.62,0,256s114.62,256,256,256s256-114.62,256-256S397.38,0,256,0z M256,486.4 C128.956,486.4,25.6,383.044,25.6,256S128.956,25.6,256,25.6S486.4,128.956,486.4,256S383.044,486.4,256,486.4z"/> </g> </g> <g> <g> <path d="M303.454,246.946l-128-128c-5-5.001-13.099-5.001-18.099,0c-5.001,5-5.001,13.099,0,18.099L276.301,256L157.346,374.946 c-5.001,5-5.001,13.099,0,18.099c2.5,2.5,5.777,3.746,9.054,3.746s6.554-1.246,9.054-3.746l128-128 C308.454,260.045,308.454,251.947,303.454,246.946z"/> </g> </g> </g>

</svg>