<svg fill="#000000" height="200px" width="200px" version="1.1" id="Layer_1" xmlns="http://www.w3.org/2000/svg" xmlns:xlink="http://www.w3.org/1999/xlink" viewBox="0 0 512.061 512.061" xml:space="preserve"><g id="SVGRepo_bgCarrier" stroke-width="0"></g><g id="SVGRepo_tracerCarrier" stroke-linecap="round" stroke-linejoin="round"></g><g id="SVGRepo_iconCarrier"> <g transform="translate(0 -1)"> <g> <g> <path d="M490.697,1.03c-11.782,0-21.333,9.551-21.333,21.333v469.333c0,11.782,9.551,21.333,21.333,21.333 s21.333-9.551,21.333-21.333V22.364C512.03,10.582,502.479,1.03,490.697,1.03z"></path> <path d="M458.311,238.338L31.645,3.671C17.427-4.149,0.03,6.138,0.03,22.364v469.333c0,16.226,17.397,26.512,31.614,18.693 l426.667-234.667C473.048,267.618,473.048,246.443,458.311,238.338z M42.697,455.617V58.444L403.763,257.03L42.697,455.617z"></path> </g> </g> </g> </g></svg>